<!DOCTYPE svg PUBLIC "-//W3C//DTD SVG 1.1//EN" "http://www.w3.org/Graphics/SVG/1.1/DTD/svg11.dtd">
<!-- Uploaded to: SVG Repo, www.svgrepo.com, Transformed by: SVG Repo Mixer Tools -->
<svg fill="#ffffff" version="1.1" id="Layer_1" xmlns="http://www.w3.org/2000/svg" xmlns:xlink="http://www.w3.org/1999/xlink" width="64px" height="64px" viewBox="0 0 92 92" enable-background="new 0 0 92 92" xml:space="preserve" stroke="#ffffff">
<g id="SVGRepo_bgCarrier" stroke-width="0"/>
<g id="SVGRepo_tracerCarrier" stroke-linecap="round" stroke-linejoin="round"/>
<g id="SVGRepo_iconCarrier"> <path id="XMLID_732_" d="M70.7,64.3c1.8,1.8,1.8,4.6,0,6.4c-0.9,0.9-2,1.3-3.2,1.3c-1.2,0-2.3-0.4-3.2-1.3L46,52.4L27.7,70.7 c-0.9,0.9-2,1.3-3.2,1.3s-2.3-0.4-3.2-1.3c-1.8-1.8-1.8-4.6,0-6.4L39.6,46L21.3,27.7c-1.8-1.8-1.8-4.6,0-6.4c1.8-1.8,4.6-1.8,6.4,0 L46,39.6l18.3-18.3c1.8-1.8,4.6-1.8,6.4,0c1.8,1.8,1.8,4.6,0,6.4L52.4,46L70.7,64.3z"/> </g>
</svg>